<svg width="86" height="66" viewBox="0 0 86 66" fill="none" xmlns="http://www.w3.org/2000/svg">
<path d="M78.3115 49H6.68848L42.5 0.837891L78.3115 49Z" fill="#19181A" stroke="black"/>
<path d="M75.3242 22.7871L78.5488 47.6631L44.6523 2.05762L75.3242 22.7871Z" fill="#479761" stroke="black"/>
<mask id="path-3-outside-1_26_403" maskUnits="userSpaceOnUse" x="19" y="12" width="26" height="33" fill="black">
<rect fill="white" x="19" y="12" width="26" height="33"/>
<path d="M37.3097 22.2756C37.196 21.1297 36.7083 20.2396 35.8466 19.6051C34.9848 18.9706 33.8153 18.6534 32.3381 18.6534C31.3343 18.6534 30.4867 18.7955 29.7955 19.0795C29.1042 19.3542 28.5739 19.7377 28.2045 20.2301C27.8447 20.7225 27.6648 21.2812 27.6648 21.9062C27.6458 22.4271 27.7547 22.8816 27.9915 23.2699C28.2377 23.6581 28.5739 23.9943 29 24.2784C29.4261 24.553 29.9186 24.7945 30.4773 25.0028C31.036 25.2017 31.6326 25.3722 32.267 25.5142L34.8807 26.1392C36.1496 26.4233 37.3144 26.8021 38.375 27.2756C39.4356 27.7491 40.3542 28.3314 41.1307 29.0227C41.9072 29.714 42.5085 30.5284 42.9347 31.4659C43.3703 32.4034 43.5928 33.4782 43.6023 34.6903C43.5928 36.4706 43.1383 38.0142 42.2386 39.321C41.3485 40.6184 40.0606 41.6269 38.375 42.3466C36.6989 43.0568 34.6771 43.4119 32.3097 43.4119C29.9612 43.4119 27.9157 43.0521 26.1733 42.3324C24.4403 41.6127 23.0862 40.5473 22.1108 39.1364C21.1449 37.7159 20.6383 35.9593 20.5909 33.8665H26.5426C26.6089 34.8419 26.8883 35.6562 27.3807 36.3097C27.8826 36.9536 28.5502 37.4413 29.3835 37.7727C30.2263 38.0947 31.178 38.2557 32.2386 38.2557C33.2803 38.2557 34.1847 38.1042 34.9517 37.8011C35.7282 37.4981 36.3295 37.0767 36.7557 36.5369C37.1818 35.9972 37.3949 35.3769 37.3949 34.6761C37.3949 34.0227 37.2008 33.4735 36.8125 33.0284C36.4337 32.5833 35.875 32.2045 35.1364 31.892C34.4072 31.5795 33.5123 31.2955 32.4517 31.0398L29.2841 30.2443C26.8314 29.6477 24.8949 28.715 23.4744 27.446C22.054 26.1771 21.3485 24.4678 21.358 22.3182C21.3485 20.5568 21.8172 19.018 22.7642 17.7017C23.7206 16.3854 25.0322 15.358 26.6989 14.6193C28.3655 13.8807 30.2595 13.5114 32.3807 13.5114C34.5398 13.5114 36.4242 13.8807 38.0341 14.6193C39.6534 15.358 40.9129 16.3854 41.8125 17.7017C42.7121 19.018 43.1761 20.5426 43.2045 22.2756H37.3097Z"/>
</mask>
<path d="M37.3097 22.2756C37.196 21.1297 36.7083 20.2396 35.8466 19.6051C34.9848 18.9706 33.8153 18.6534 32.3381 18.6534C31.3343 18.6534 30.4867 18.7955 29.7955 19.0795C29.1042 19.3542 28.5739 19.7377 28.2045 20.2301C27.8447 20.7225 27.6648 21.2812 27.6648 21.9062C27.6458 22.4271 27.7547 22.8816 27.9915 23.2699C28.2377 23.6581 28.5739 23.9943 29 24.2784C29.4261 24.553 29.9186 24.7945 30.4773 25.0028C31.036 25.2017 31.6326 25.3722 32.267 25.5142L34.8807 26.1392C36.1496 26.4233 37.3144 26.8021 38.375 27.2756C39.4356 27.7491 40.3542 28.3314 41.1307 29.0227C41.9072 29.714 42.5085 30.5284 42.9347 31.4659C43.3703 32.4034 43.5928 33.4782 43.6023 34.6903C43.5928 36.4706 43.1383 38.0142 42.2386 39.321C41.3485 40.6184 40.0606 41.6269 38.375 42.3466C36.6989 43.0568 34.6771 43.4119 32.3097 43.4119C29.9612 43.4119 27.9157 43.0521 26.1733 42.3324C24.4403 41.6127 23.0862 40.5473 22.1108 39.1364C21.1449 37.7159 20.6383 35.9593 20.5909 33.8665H26.5426C26.6089 34.8419 26.8883 35.6562 27.3807 36.3097C27.8826 36.9536 28.5502 37.4413 29.3835 37.7727C30.2263 38.0947 31.178 38.2557 32.2386 38.2557C33.2803 38.2557 34.1847 38.1042 34.9517 37.8011C35.7282 37.4981 36.3295 37.0767 36.7557 36.5369C37.1818 35.9972 37.3949 35.3769 37.3949 34.6761C37.3949 34.0227 37.2008 33.4735 36.8125 33.0284C36.4337 32.5833 35.875 32.2045 35.1364 31.892C34.4072 31.5795 33.5123 31.2955 32.4517 31.0398L29.2841 30.2443C26.8314 29.6477 24.8949 28.715 23.4744 27.446C22.054 26.1771 21.3485 24.4678 21.358 22.3182C21.3485 20.5568 21.8172 19.018 22.7642 17.7017C23.7206 16.3854 25.0322 15.358 26.6989 14.6193C28.3655 13.8807 30.2595 13.5114 32.3807 13.5114C34.5398 13.5114 36.4242 13.8807 38.0341 14.6193C39.6534 15.358 40.9129 16.3854 41.8125 17.7017C42.7121 19.018 43.1761 20.5426 43.2045 22.2756H37.3097Z" fill="white"/>
<path d="M37.3097 22.2756L36.3145 22.3743L36.4039 23.2756H37.3097V22.2756ZM29.7955 19.0795L30.1647 20.009L30.1756 20.0045L29.7955 19.0795ZM28.2045 20.2301L27.4045 19.6301L27.3972 19.6401L28.2045 20.2301ZM27.6648 21.9062L28.6641 21.9426L28.6648 21.9244V21.9062H27.6648ZM27.9915 23.2699L27.1377 23.7905L27.1423 23.798L27.147 23.8054L27.9915 23.2699ZM29 24.2784L28.4453 25.1105L28.4518 25.1148L28.4583 25.119L29 24.2784ZM30.4773 25.0028L30.1279 25.9398L30.1349 25.9424L30.1419 25.9449L30.4773 25.0028ZM32.267 25.5142L32.4996 24.5416L32.4926 24.5399L32.4855 24.5384L32.267 25.5142ZM34.8807 26.1392L34.6481 27.1118L34.6551 27.1135L34.6622 27.115L34.8807 26.1392ZM38.375 27.2756L37.9673 28.1887H37.9674L38.375 27.2756ZM41.1307 29.0227L41.7956 28.2758H41.7956L41.1307 29.0227ZM42.9347 31.4659L42.0243 31.8797L42.0278 31.8873L42.9347 31.4659ZM43.6023 34.6903L44.6023 34.6957L44.6022 34.6825L43.6023 34.6903ZM42.2386 39.321L41.4149 38.754L41.4141 38.7553L42.2386 39.321ZM38.375 42.3466L38.7652 43.2673L38.7677 43.2663L38.375 42.3466ZM26.1733 42.3324L25.7898 43.2559L25.7915 43.2566L26.1733 42.3324ZM22.1108 39.1364L21.2838 39.6987L21.2882 39.705L22.1108 39.1364ZM20.5909 33.8665V32.8665H19.568L19.5912 33.8891L20.5909 33.8665ZM26.5426 33.8665L27.5403 33.7987L27.477 32.8665H26.5426V33.8665ZM27.3807 36.3097L26.5821 36.9115L26.587 36.918L26.592 36.9244L27.3807 36.3097ZM29.3835 37.7727L29.0139 38.702L29.0267 38.7069L29.3835 37.7727ZM34.9517 37.8011L34.5882 36.8695L34.5843 36.8711L34.9517 37.8011ZM36.7557 36.5369L37.5406 37.1566L36.7557 36.5369ZM36.8125 33.0284L36.0509 33.6766L36.0589 33.6858L36.8125 33.0284ZM35.1364 31.892L34.7424 32.8112L34.7467 32.813L35.1364 31.892ZM32.4517 31.0398L32.2081 32.0097L32.2173 32.0119L32.4517 31.0398ZM29.2841 30.2443L29.5277 29.2744L29.5204 29.2726L29.2841 30.2443ZM23.4744 27.446L22.8082 28.1918H22.8082L23.4744 27.446ZM21.358 22.3182L22.358 22.3226L22.3579 22.3128L21.358 22.3182ZM22.7642 17.7017L21.9552 17.1139L21.9524 17.1177L22.7642 17.7017ZM38.0341 14.6193L37.6171 15.5282L37.6191 15.5291L38.0341 14.6193ZM41.8125 17.7017L40.9869 18.266L40.9869 18.266L41.8125 17.7017ZM43.2045 22.2756V23.2756H44.2211L44.2044 22.2592L43.2045 22.2756ZM38.3048 22.1769C38.1656 20.7733 37.5481 19.6161 36.4395 18.7998L35.2537 20.4104C35.8686 20.8631 36.2265 21.4862 36.3145 22.3743L38.3048 22.1769ZM36.4395 18.7998C35.3514 17.9987 33.9492 17.6534 32.3381 17.6534V19.6534C33.6814 19.6534 34.6183 19.9425 35.2537 20.4104L36.4395 18.7998ZM32.3381 17.6534C31.246 17.6534 30.2609 17.8071 29.4153 18.1546L30.1756 20.0045C30.7126 19.7838 31.4225 19.6534 32.3381 19.6534V17.6534ZM29.4263 18.1502C28.5996 18.4786 27.9054 18.9623 27.4045 19.6301L29.0045 20.8301C29.2423 20.5131 29.6087 20.2297 30.1646 20.0089L29.4263 18.1502ZM27.3972 19.6401C26.9089 20.3083 26.6648 21.0748 26.6648 21.9062H28.6648C28.6648 21.4877 28.7805 21.1368 29.0119 20.8201L27.3972 19.6401ZM26.6654 21.8699C26.6404 22.5572 26.7846 23.2114 27.1377 23.7905L28.8453 22.7493C28.7249 22.5519 28.6512 22.2969 28.6641 21.9426L26.6654 21.8699ZM27.147 23.8054C27.4761 24.3245 27.9162 24.7577 28.4453 25.1105L29.5547 23.4464C29.2315 23.2309 28.9993 22.9918 28.836 22.7343L27.147 23.8054ZM28.4583 25.119C28.9544 25.4387 29.5132 25.7106 30.1279 25.9398L30.8267 24.0659C30.3239 23.8784 29.8979 23.6674 29.5417 23.4378L28.4583 25.119ZM30.1419 25.9449C30.7423 26.1586 31.3782 26.34 32.0486 26.49L32.4855 24.5384C31.8869 24.4043 31.3296 24.2448 30.8126 24.0607L30.1419 25.9449ZM32.0345 26.4868L34.6481 27.1118L35.1133 25.1666L32.4996 24.5416L32.0345 26.4868ZM34.6622 27.115C35.8738 27.3863 36.9743 27.7454 37.9673 28.1887L38.7827 26.3624C37.6545 25.8588 36.4255 25.4603 35.0992 25.1634L34.6622 27.115ZM37.9674 28.1887C38.945 28.6252 39.7744 29.1541 40.4658 29.7696L41.7956 28.2758C40.934 27.5088 39.9262 26.8729 38.7826 26.3624L37.9674 28.1887ZM40.4658 29.7696C41.1392 30.3691 41.6564 31.0704 42.0243 31.8797L43.845 31.0521C43.3606 29.9864 42.6752 29.0589 41.7956 28.2758L40.4658 29.7696ZM42.0278 31.8873C42.3936 32.6747 42.5938 33.6045 42.6023 34.6982L44.6022 34.6825C44.5918 33.3519 44.3469 32.1321 43.8415 31.0445L42.0278 31.8873ZM42.6023 34.685C42.5938 36.2901 42.1871 37.6323 41.4149 38.754L43.0623 39.8881C44.0894 38.3961 44.5919 36.6512 44.6023 34.6957L42.6023 34.685ZM41.4141 38.7553C40.6481 39.8716 39.5226 40.7693 37.9823 41.4269L38.7677 43.2663C40.5986 42.4845 42.0489 41.3651 43.0632 39.8868L41.4141 38.7553ZM37.9848 41.4258C36.4632 42.0706 34.5815 42.4119 32.3097 42.4119V44.4119C34.7727 44.4119 36.9345 44.043 38.7652 43.2673L37.9848 41.4258ZM32.3097 42.4119C30.061 42.4119 28.1506 42.0672 26.5551 41.4081L25.7915 43.2566C27.6808 44.037 29.8613 44.4119 32.3097 44.4119V42.4119ZM26.5568 41.4089C24.984 40.7556 23.7893 39.806 22.9334 38.5677L21.2882 39.705C22.383 41.2887 23.8967 42.4697 25.7898 43.2559L26.5568 41.4089ZM22.9377 38.5741C22.1019 37.3449 21.6346 35.7863 21.5907 33.8439L19.5912 33.8891C19.6419 36.1322 20.1879 38.0869 21.2839 39.6987L22.9377 38.5741ZM20.5909 34.8665H26.5426V32.8665H20.5909V34.8665ZM25.5449 33.9343C25.6218 35.065 25.9518 36.0752 26.5821 36.9115L28.1793 35.7078C27.8247 35.2373 27.596 34.6187 27.5403 33.7987L25.5449 33.9343ZM26.592 36.9244C27.2137 37.7221 28.0322 38.3114 29.014 38.7019L29.7531 36.8435C29.0682 36.5711 28.5515 36.1851 28.1694 35.6949L26.592 36.9244ZM29.0267 38.7069C30.0015 39.0793 31.0771 39.2557 32.2386 39.2557V37.2557C31.279 37.2557 30.4512 37.1101 29.7404 36.8386L29.0267 38.7069ZM32.2386 39.2557C33.3743 39.2557 34.4088 39.0908 35.3191 38.7312L34.5843 36.8711C33.9605 37.1175 33.1863 37.2557 32.2386 37.2557V39.2557ZM35.3152 38.7327C36.2223 38.3787 36.983 37.8628 37.5406 37.1566L35.9708 35.9173C35.6761 36.2906 35.2341 36.6175 34.5882 36.8696L35.3152 38.7327ZM37.5406 37.1566C38.1089 36.4367 38.3949 35.5971 38.3949 34.6761H36.3949C36.3949 35.1567 36.2548 35.5576 35.9708 35.9173L37.5406 37.1566ZM38.3949 34.6761C38.3949 33.8086 38.1305 33.018 37.5661 32.371L36.0589 33.6858C36.271 33.9289 36.3949 34.2368 36.3949 34.6761H38.3949ZM37.574 32.3803C37.0638 31.7808 36.3576 31.3229 35.526 30.9711L34.7467 32.813C35.3924 33.0862 35.8036 33.3859 36.051 33.6765L37.574 32.3803ZM35.5303 30.9729C34.7344 30.6318 33.7825 30.332 32.6861 30.0676L32.2173 32.0119C33.2421 32.259 34.08 32.5273 34.7424 32.8112L35.5303 30.9729ZM32.6953 30.0699L29.5276 29.2744L29.0405 31.2142L32.2081 32.0097L32.6953 30.0699ZM29.5204 29.2726C27.1775 28.7027 25.4052 27.8299 24.1406 26.7003L22.8082 28.1918C24.3846 29.6 26.4854 30.5927 29.0477 31.216L29.5204 29.2726ZM24.1406 26.7003C22.9625 25.6478 22.3496 24.2269 22.3579 22.3226L20.358 22.3138C20.3474 24.7087 21.1455 26.7064 22.8082 28.1918L24.1406 26.7003ZM22.3579 22.3128C22.3495 20.7436 22.7632 19.4154 23.576 18.2857L21.9524 17.1177C20.8712 18.6206 20.3475 20.37 20.358 22.3236L22.3579 22.3128ZM23.5732 18.2895C24.4141 17.1323 25.5786 16.2096 27.104 15.5336L26.2937 13.7051C24.4858 14.5063 23.0272 15.6386 21.9552 17.1139L23.5732 18.2895ZM27.104 15.5336C28.6239 14.86 30.3764 14.5114 32.3807 14.5114V12.5114C30.1425 12.5114 28.1071 12.9014 26.2937 13.7051L27.104 15.5336ZM32.3807 14.5114C34.4267 14.5114 36.1635 14.8613 37.6171 15.5282L38.4511 13.7104C36.685 12.9001 34.6528 12.5114 32.3807 12.5114V14.5114ZM37.6191 15.5291C39.0924 16.2012 40.2017 17.1171 40.9869 18.266L42.6381 17.1374C41.624 15.6537 40.2144 14.5147 38.4491 13.7095L37.6191 15.5291ZM40.9869 18.266C41.7664 19.4065 42.1792 20.737 42.2047 22.292L44.2044 22.2592C44.1731 20.3483 43.6578 18.6295 42.6381 17.1374L40.9869 18.266ZM43.2045 21.2756H37.3097V23.2756H43.2045V21.2756Z" fill="white" mask="url(#path-3-outside-1_26_403)"/>
<path d="M37.3097 22.2756L36.3145 22.3743L36.4039 23.2756H37.3097V22.2756ZM29.7955 19.0795L30.1647 20.009L30.1756 20.0045L29.7955 19.0795ZM28.2045 20.2301L27.4045 19.6301L27.3972 19.6401L28.2045 20.2301ZM27.6648 21.9062L28.6641 21.9426L28.6648 21.9244V21.9062H27.6648ZM27.9915 23.2699L27.1377 23.7905L27.1423 23.798L27.147 23.8054L27.9915 23.2699ZM29 24.2784L28.4453 25.1105L28.4518 25.1148L28.4583 25.119L29 24.2784ZM30.4773 25.0028L30.1279 25.9398L30.1349 25.9424L30.1419 25.9449L30.4773 25.0028ZM32.267 25.5142L32.4996 24.5416L32.4926 24.5399L32.4855 24.5384L32.267 25.5142ZM34.8807 26.1392L34.6481 27.1118L34.6551 27.1135L34.6622 27.115L34.8807 26.1392ZM38.375 27.2756L37.9673 28.1887H37.9674L38.375 27.2756ZM41.1307 29.0227L41.7956 28.2758H41.7956L41.1307 29.0227ZM42.9347 31.4659L42.0243 31.8797L42.0278 31.8873L42.9347 31.4659ZM43.6023 34.6903L44.6023 34.6957L44.6022 34.6825L43.6023 34.6903ZM42.2386 39.321L41.4149 38.754L41.4141 38.7553L42.2386 39.321ZM38.375 42.3466L38.7652 43.2673L38.7677 43.2663L38.375 42.3466ZM26.1733 42.3324L25.7898 43.2559L25.7915 43.2566L26.1733 42.3324ZM22.1108 39.1364L21.2838 39.6987L21.2882 39.705L22.1108 39.1364ZM20.5909 33.8665V32.8665H19.568L19.5912 33.8891L20.5909 33.8665ZM26.5426 33.8665L27.5403 33.7987L27.477 32.8665H26.5426V33.8665ZM27.3807 36.3097L26.5821 36.9115L26.587 36.918L26.592 36.9244L27.3807 36.3097ZM29.3835 37.7727L29.0139 38.702L29.0267 38.7069L29.3835 37.7727ZM34.9517 37.8011L34.5882 36.8695L34.5843 36.8711L34.9517 37.8011ZM36.7557 36.5369L37.5406 37.1566L36.7557 36.5369ZM36.8125 33.0284L36.0509 33.6766L36.0589 33.6858L36.8125 33.0284ZM35.1364 31.892L34.7424 32.8112L34.7467 32.813L35.1364 31.892ZM32.4517 31.0398L32.2081 32.0097L32.2173 32.0119L32.4517 31.0398ZM29.2841 30.2443L29.5277 29.2744L29.5204 29.2726L29.2841 30.2443ZM23.4744 27.446L22.8082 28.1918H22.8082L23.4744 27.446ZM21.358 22.3182L22.358 22.3226L22.3579 22.3128L21.358 22.3182ZM22.7642 17.7017L21.9552 17.1139L21.9524 17.1177L22.7642 17.7017ZM38.0341 14.6193L37.6171 15.5282L37.6191 15.5291L38.0341 14.6193ZM41.8125 17.7017L40.9869 18.266L40.9869 18.266L41.8125 17.7017ZM43.2045 22.2756V23.2756H44.2211L44.2044 22.2592L43.2045 22.2756ZM38.3048 22.1769C38.1656 20.7733 37.5481 19.6161 36.4395 18.7998L35.2537 20.4104C35.8686 20.8631 36.2265 21.4862 36.3145 22.3743L38.3048 22.1769ZM36.4395 18.7998C35.3514 17.9987 33.9492 17.6534 32.3381 17.6534V19.6534C33.6814 19.6534 34.6183 19.9425 35.2537 20.4104L36.4395 18.7998ZM32.3381 17.6534C31.246 17.6534 30.2609 17.8071 29.4153 18.1546L30.1756 20.0045C30.7126 19.7838 31.4225 19.6534 32.3381 19.6534V17.6534ZM29.4263 18.1502C28.5996 18.4786 27.9054 18.9623 27.4045 19.6301L29.0045 20.8301C29.2423 20.5131 29.6087 20.2297 30.1646 20.0089L29.4263 18.1502ZM27.3972 19.6401C26.9089 20.3083 26.6648 21.0748 26.6648 21.9062H28.6648C28.6648 21.4877 28.7805 21.1368 29.0119 20.8201L27.3972 19.6401ZM26.6654 21.8699C26.6404 22.5572 26.7846 23.2114 27.1377 23.7905L28.8453 22.7493C28.7249 22.5519 28.6512 22.2969 28.6641 21.9426L26.6654 21.8699ZM27.147 23.8054C27.4761 24.3245 27.9162 24.7577 28.4453 25.1105L29.5547 23.4464C29.2315 23.2309 28.9993 22.9918 28.836 22.7343L27.147 23.8054ZM28.4583 25.119C28.9544 25.4387 29.5132 25.7106 30.1279 25.9398L30.8267 24.0659C30.3239 23.8784 29.8979 23.6674 29.5417 23.4378L28.4583 25.119ZM30.1419 25.9449C30.7423 26.1586 31.3782 26.34 32.0486 26.49L32.4855 24.5384C31.8869 24.4043 31.3296 24.2448 30.8126 24.0607L30.1419 25.9449ZM32.0345 26.4868L34.6481 27.1118L35.1133 25.1666L32.4996 24.5416L32.0345 26.4868ZM34.6622 27.115C35.8738 27.3863 36.9743 27.7454 37.9673 28.1887L38.7827 26.3624C37.6545 25.8588 36.4255 25.4603 35.0992 25.1634L34.6622 27.115ZM37.9674 28.1887C38.945 28.6252 39.7744 29.1541 40.4658 29.7696L41.7956 28.2758C40.934 27.5088 39.9262 26.8729 38.7826 26.3624L37.9674 28.1887ZM40.4658 29.7696C41.1392 30.3691 41.6564 31.0704 42.0243 31.8797L43.845 31.0521C43.3606 29.9864 42.6752 29.0589 41.7956 28.2758L40.4658 29.7696ZM42.0278 31.8873C42.3936 32.6747 42.5938 33.6045 42.6023 34.6982L44.6022 34.6825C44.5918 33.3519 44.3469 32.1321 43.8415 31.0445L42.0278 31.8873ZM42.6023 34.685C42.5938 36.2901 42.1871 37.6323 41.4149 38.754L43.0623 39.8881C44.0894 38.3961 44.5919 36.6512 44.6023 34.6957L42.6023 34.685ZM41.4141 38.7553C40.6481 39.8716 39.5226 40.7693 37.9823 41.4269L38.7677 43.2663C40.5986 42.4845 42.0489 41.3651 43.0632 39.8868L41.4141 38.7553ZM37.9848 41.4258C36.4632 42.0706 34.5815 42.4119 32.3097 42.4119V44.4119C34.7727 44.4119 36.9345 44.043 38.7652 43.2673L37.9848 41.4258ZM32.3097 42.4119C30.061 42.4119 28.1506 42.0672 26.5551 41.4081L25.7915 43.2566C27.6808 44.037 29.8613 44.4119 32.3097 44.4119V42.4119ZM26.5568 41.4089C24.984 40.7556 23.7893 39.806 22.9334 38.5677L21.2882 39.705C22.383 41.2887 23.8967 42.4697 25.7898 43.2559L26.5568 41.4089ZM22.9377 38.5741C22.1019 37.3449 21.6346 35.7863 21.5907 33.8439L19.5912 33.8891C19.6419 36.1322 20.1879 38.0869 21.2839 39.6987L22.9377 38.5741ZM20.5909 34.8665H26.5426V32.8665H20.5909V34.8665ZM25.5449 33.9343C25.6218 35.065 25.9518 36.0752 26.5821 36.9115L28.1793 35.7078C27.8247 35.2373 27.596 34.6187 27.5403 33.7987L25.5449 33.9343ZM26.592 36.9244C27.2137 37.7221 28.0322 38.3114 29.014 38.7019L29.7531 36.8435C29.0682 36.5711 28.5515 36.1851 28.1694 35.6949L26.592 36.9244ZM29.0267 38.7069C30.0015 39.0793 31.0771 39.2557 32.2386 39.2557V37.2557C31.279 37.2557 30.4512 37.1101 29.7404 36.8386L29.0267 38.7069ZM32.2386 39.2557C33.3743 39.2557 34.4088 39.0908 35.3191 38.7312L34.5843 36.8711C33.9605 37.1175 33.1863 37.2557 32.2386 37.2557V39.2557ZM35.3152 38.7327C36.2223 38.3787 36.983 37.8628 37.5406 37.1566L35.9708 35.9173C35.6761 36.2906 35.2341 36.6175 34.5882 36.8696L35.3152 38.7327ZM37.5406 37.1566C38.1089 36.4367 38.3949 35.5971 38.3949 34.6761H36.3949C36.3949 35.1567 36.2548 35.5576 35.9708 35.9173L37.5406 37.1566ZM38.3949 34.6761C38.3949 33.8086 38.1305 33.018 37.5661 32.371L36.0589 33.6858C36.271 33.9289 36.3949 34.2368 36.3949 34.6761H38.3949ZM37.574 32.3803C37.0638 31.7808 36.3576 31.3229 35.526 30.9711L34.7467 32.813C35.3924 33.0862 35.8036 33.3859 36.051 33.6765L37.574 32.3803ZM35.5303 30.9729C34.7344 30.6318 33.7825 30.332 32.6861 30.0676L32.2173 32.0119C33.2421 32.259 34.08 32.5273 34.7424 32.8112L35.5303 30.9729ZM32.6953 30.0699L29.5276 29.2744L29.0405 31.2142L32.2081 32.0097L32.6953 30.0699ZM29.5204 29.2726C27.1775 28.7027 25.4052 27.8299 24.1406 26.7003L22.8082 28.1918C24.3846 29.6 26.4854 30.5927 29.0477 31.216L29.5204 29.2726ZM24.1406 26.7003C22.9625 25.6478 22.3496 24.2269 22.3579 22.3226L20.358 22.3138C20.3474 24.7087 21.1455 26.7064 22.8082 28.1918L24.1406 26.7003ZM22.3579 22.3128C22.3495 20.7436 22.7632 19.4154 23.576 18.2857L21.9524 17.1177C20.8712 18.6206 20.3475 20.37 20.358 22.3236L22.3579 22.3128ZM23.5732 18.2895C24.4141 17.1323 25.5786 16.2096 27.104 15.5336L26.2937 13.7051C24.4858 14.5063 23.0272 15.6386 21.9552 17.1139L23.5732 18.2895ZM27.104 15.5336C28.6239 14.86 30.3764 14.5114 32.3807 14.5114V12.5114C30.1425 12.5114 28.1071 12.9014 26.2937 13.7051L27.104 15.5336ZM32.3807 14.5114C34.4267 14.5114 36.1635 14.8613 37.6171 15.5282L38.4511 13.7104C36.685 12.9001 34.6528 12.5114 32.3807 12.5114V14.5114ZM37.6191 15.5291C39.0924 16.2012 40.2017 17.1171 40.9869 18.266L42.6381 17.1374C41.624 15.6537 40.2144 14.5147 38.4491 13.7095L37.6191 15.5291ZM40.9869 18.266C41.7664 19.4065 42.1792 20.737 42.2047 22.292L44.2044 22.2592C44.1731 20.3483 43.6578 18.6295 42.6381 17.1374L40.9869 18.266ZM43.2045 21.2756H37.3097V23.2756H43.2045V21.2756Z" fill="white" mask="url(#path-3-outside-1_26_403)"/>
<path d="M37.3097 22.2756L36.3145 22.3743L36.4039 23.2756H37.3097V22.2756ZM29.7955 19.0795L30.1647 20.009L30.1756 20.0045L29.7955 19.0795ZM28.2045 20.2301L27.4045 19.6301L27.3972 19.6401L28.2045 20.2301ZM27.6648 21.9062L28.6641 21.9426L28.6648 21.9244V21.9062H27.6648ZM27.9915 23.2699L27.1377 23.7905L27.1423 23.798L27.147 23.8054L27.9915 23.2699ZM29 24.2784L28.4453 25.1105L28.4518 25.1148L28.4583 25.119L29 24.2784ZM30.4773 25.0028L30.1279 25.9398L30.1349 25.9424L30.1419 25.9449L30.4773 25.0028ZM32.267 25.5142L32.4996 24.5416L32.4926 24.5399L32.4855 24.5384L32.267 25.5142ZM34.8807 26.1392L34.6481 27.1118L34.6551 27.1135L34.6622 27.115L34.8807 26.1392ZM38.375 27.2756L37.9673 28.1887H37.9674L38.375 27.2756ZM41.1307 29.0227L41.7956 28.2758H41.7956L41.1307 29.0227ZM42.9347 31.4659L42.0243 31.8797L42.0278 31.8873L42.9347 31.4659ZM43.6023 34.6903L44.6023 34.6957L44.6022 34.6825L43.6023 34.6903ZM42.2386 39.321L41.4149 38.754L41.4141 38.7553L42.2386 39.321ZM38.375 42.3466L38.7652 43.2673L38.7677 43.2663L38.375 42.3466ZM26.1733 42.3324L25.7898 43.2559L25.7915 43.2566L26.1733 42.3324ZM22.1108 39.1364L21.2838 39.6987L21.2882 39.705L22.1108 39.1364ZM20.5909 33.8665V32.8665H19.568L19.5912 33.8891L20.5909 33.8665ZM26.5426 33.8665L27.5403 33.7987L27.477 32.8665H26.5426V33.8665ZM27.3807 36.3097L26.5821 36.9115L26.587 36.918L26.592 36.9244L27.3807 36.3097ZM29.3835 37.7727L29.0139 38.702L29.0267 38.7069L29.3835 37.7727ZM34.9517 37.8011L34.5882 36.8695L34.5843 36.8711L34.9517 37.8011ZM36.7557 36.5369L37.5406 37.1566L36.7557 36.5369ZM36.8125 33.0284L36.0509 33.6766L36.0589 33.6858L36.8125 33.0284ZM35.1364 31.892L34.7424 32.8112L34.7467 32.813L35.1364 31.892ZM32.4517 31.0398L32.2081 32.0097L32.2173 32.0119L32.4517 31.0398ZM29.2841 30.2443L29.5277 29.2744L29.5204 29.2726L29.2841 30.2443ZM23.4744 27.446L22.8082 28.1918H22.8082L23.4744 27.446ZM21.358 22.3182L22.358 22.3226L22.3579 22.3128L21.358 22.3182ZM22.7642 17.7017L21.9552 17.1139L21.9524 17.1177L22.7642 17.7017ZM38.0341 14.6193L37.6171 15.5282L37.6191 15.5291L38.0341 14.6193ZM41.8125 17.7017L40.9869 18.266L40.9869 18.266L41.8125 17.7017ZM43.2045 22.2756V23.2756H44.2211L44.2044 22.2592L43.2045 22.2756ZM38.3048 22.1769C38.1656 20.7733 37.5481 19.6161 36.4395 18.7998L35.2537 20.4104C35.8686 20.8631 36.2265 21.4862 36.3145 22.3743L38.3048 22.1769ZM36.4395 18.7998C35.3514 17.9987 33.9492 17.6534 32.3381 17.6534V19.6534C33.6814 19.6534 34.6183 19.9425 35.2537 20.4104L36.4395 18.7998ZM32.3381 17.6534C31.246 17.6534 30.2609 17.8071 29.4153 18.1546L30.1756 20.0045C30.7126 19.7838 31.4225 19.6534 32.3381 19.6534V17.6534ZM29.4263 18.1502C28.5996 18.4786 27.9054 18.9623 27.4045 19.6301L29.0045 20.8301C29.2423 20.5131 29.6087 20.2297 30.1646 20.0089L29.4263 18.1502ZM27.3972 19.6401C26.9089 20.3083 26.6648 21.0748 26.6648 21.9062H28.6648C28.6648 21.4877 28.7805 21.1368 29.0119 20.8201L27.3972 19.6401ZM26.6654 21.8699C26.6404 22.5572 26.7846 23.2114 27.1377 23.7905L28.8453 22.7493C28.7249 22.5519 28.6512 22.2969 28.6641 21.9426L26.6654 21.8699ZM27.147 23.8054C27.4761 24.3245 27.9162 24.7577 28.4453 25.1105L29.5547 23.4464C29.2315 23.2309 28.9993 22.9918 28.836 22.7343L27.147 23.8054ZM28.4583 25.119C28.9544 25.4387 29.5132 25.7106 30.1279 25.9398L30.8267 24.0659C30.3239 23.8784 29.8979 23.6674 29.5417 23.4378L28.4583 25.119ZM30.1419 25.9449C30.7423 26.1586 31.3782 26.34 32.0486 26.49L32.4855 24.5384C31.8869 24.4043 31.3296 24.2448 30.8126 24.0607L30.1419 25.9449ZM32.0345 26.4868L34.6481 27.1118L35.1133 25.1666L32.4996 24.5416L32.0345 26.4868ZM34.6622 27.115C35.8738 27.3863 36.9743 27.7454 37.9673 28.1887L38.7827 26.3624C37.6545 25.8588 36.4255 25.4603 35.0992 25.1634L34.6622 27.115ZM37.9674 28.1887C38.945 28.6252 39.7744 29.1541 40.4658 29.7696L41.7956 28.2758C40.934 27.5088 39.9262 26.8729 38.7826 26.3624L37.9674 28.1887ZM40.4658 29.7696C41.1392 30.3691 41.6564 31.0704 42.0243 31.8797L43.845 31.0521C43.3606 29.9864 42.6752 29.0589 41.7956 28.2758L40.4658 29.7696ZM42.0278 31.8873C42.3936 32.6747 42.5938 33.6045 42.6023 34.6982L44.6022 34.6825C44.5918 33.3519 44.3469 32.1321 43.8415 31.0445L42.0278 31.8873ZM42.6023 34.685C42.5938 36.2901 42.1871 37.6323 41.4149 38.754L43.0623 39.8881C44.0894 38.3961 44.5919 36.6512 44.6023 34.6957L42.6023 34.685ZM41.4141 38.7553C40.6481 39.8716 39.5226 40.7693 37.9823 41.4269L38.7677 43.2663C40.5986 42.4845 42.0489 41.3651 43.0632 39.8868L41.4141 38.7553ZM37.9848 41.4258C36.4632 42.0706 34.5815 42.4119 32.3097 42.4119V44.4119C34.7727 44.4119 36.9345 44.043 38.7652 43.2673L37.9848 41.4258ZM32.3097 42.4119C30.061 42.4119 28.1506 42.0672 26.5551 41.4081L25.7915 43.2566C27.6808 44.037 29.8613 44.4119 32.3097 44.4119V42.4119ZM26.5568 41.4089C24.984 40.7556 23.7893 39.806 22.9334 38.5677L21.2882 39.705C22.383 41.2887 23.8967 42.4697 25.7898 43.2559L26.5568 41.4089ZM22.9377 38.5741C22.1019 37.3449 21.6346 35.7863 21.5907 33.8439L19.5912 33.8891C19.6419 36.1322 20.1879 38.0869 21.2839 39.6987L22.9377 38.5741ZM20.5909 34.8665H26.5426V32.8665H20.5909V34.8665ZM25.5449 33.9343C25.6218 35.065 25.9518 36.0752 26.5821 36.9115L28.1793 35.7078C27.8247 35.2373 27.596 34.6187 27.5403 33.7987L25.5449 33.9343ZM26.592 36.9244C27.2137 37.7221 28.0322 38.3114 29.014 38.7019L29.7531 36.8435C29.0682 36.5711 28.5515 36.1851 28.1694 35.6949L26.592 36.9244ZM29.0267 38.7069C30.0015 39.0793 31.0771 39.2557 32.2386 39.2557V37.2557C31.279 37.2557 30.4512 37.1101 29.7404 36.8386L29.0267 38.7069ZM32.2386 39.2557C33.3743 39.2557 34.4088 39.0908 35.3191 38.7312L34.5843 36.8711C33.9605 37.1175 33.1863 37.2557 32.2386 37.2557V39.2557ZM35.3152 38.7327C36.2223 38.3787 36.983 37.8628 37.5406 37.1566L35.9708 35.9173C35.6761 36.2906 35.2341 36.6175 34.5882 36.8696L35.3152 38.7327ZM37.5406 37.1566C38.1089 36.4367 38.3949 35.5971 38.3949 34.6761H36.3949C36.3949 35.1567 36.2548 35.5576 35.9708 35.9173L37.5406 37.1566ZM38.3949 34.6761C38.3949 33.8086 38.1305 33.018 37.5661 32.371L36.0589 33.6858C36.271 33.9289 36.3949 34.2368 36.3949 34.6761H38.3949ZM37.574 32.3803C37.0638 31.7808 36.3576 31.3229 35.526 30.9711L34.7467 32.813C35.3924 33.0862 35.8036 33.3859 36.051 33.6765L37.574 32.3803ZM35.5303 30.9729C34.7344 30.6318 33.7825 30.332 32.6861 30.0676L32.2173 32.0119C33.2421 32.259 34.08 32.5273 34.7424 32.8112L35.5303 30.9729ZM32.6953 30.0699L29.5276 29.2744L29.0405 31.2142L32.2081 32.0097L32.6953 30.0699ZM29.5204 29.2726C27.1775 28.7027 25.4052 27.8299 24.1406 26.7003L22.8082 28.1918C24.3846 29.6 26.4854 30.5927 29.0477 31.216L29.5204 29.2726ZM24.1406 26.7003C22.9625 25.6478 22.3496 24.2269 22.3579 22.3226L20.358 22.3138C20.3474 24.7087 21.1455 26.7064 22.8082 28.1918L24.1406 26.7003ZM22.3579 22.3128C22.3495 20.7436 22.7632 19.4154 23.576 18.2857L21.9524 17.1177C20.8712 18.6206 20.3475 20.37 20.358 22.3236L22.3579 22.3128ZM23.5732 18.2895C24.4141 17.1323 25.5786 16.2096 27.104 15.5336L26.2937 13.7051C24.4858 14.5063 23.0272 15.6386 21.9552 17.1139L23.5732 18.2895ZM27.104 15.5336C28.6239 14.86 30.3764 14.5114 32.3807 14.5114V12.5114C30.1425 12.5114 28.1071 12.9014 26.2937 13.7051L27.104 15.5336ZM32.3807 14.5114C34.4267 14.5114 36.1635 14.8613 37.6171 15.5282L38.4511 13.7104C36.685 12.9001 34.6528 12.5114 32.3807 12.5114V14.5114ZM37.6191 15.5291C39.0924 16.2012 40.2017 17.1171 40.9869 18.266L42.6381 17.1374C41.624 15.6537 40.2144 14.5147 38.4491 13.7095L37.6191 15.5291ZM40.9869 18.266C41.7664 19.4065 42.1792 20.737 42.2047 22.292L44.2044 22.2592C44.1731 20.3483 43.6578 18.6295 42.6381 17.1374L40.9869 18.266ZM43.2045 21.2756H37.3097V23.2756H43.2045V21.2756Z" fill="#19181A" mask="url(#path-3-outside-1_26_403)"/>
<mask id="path-5-outside-2_26_403" maskUnits="userSpaceOnUse" x="47" y="12" width="9" height="32" fill="black">
<rect fill="white" x="47" y="12" width="9" height="32"/>
<path d="M54.679 13.9091V43H48.5284V13.9091H54.679Z"/>
</mask>
<path d="M54.679 13.9091V43H48.5284V13.9091H54.679Z" fill="white"/>
<path d="M54.679 13.9091H55.679V12.9091H54.679V13.9091ZM54.679 43V44H55.679V43H54.679ZM48.5284 43H47.5284V44H48.5284V43ZM48.5284 13.9091V12.9091H47.5284V13.9091H48.5284ZM53.679 13.9091V43H55.679V13.9091H53.679ZM54.679 42H48.5284V44H54.679V42ZM49.5284 43V13.9091H47.5284V43H49.5284ZM48.5284 14.9091H54.679V12.9091H48.5284V14.9091Z" fill="white" mask="url(#path-5-outside-2_26_403)"/>
<path d="M54.679 13.9091H55.679V12.9091H54.679V13.9091ZM54.679 43V44H55.679V43H54.679ZM48.5284 43H47.5284V44H48.5284V43ZM48.5284 13.9091V12.9091H47.5284V13.9091H48.5284ZM53.679 13.9091V43H55.679V13.9091H53.679ZM54.679 42H48.5284V44H54.679V42ZM49.5284 43V13.9091H47.5284V43H49.5284ZM48.5284 14.9091H54.679V12.9091H48.5284V14.9091Z" fill="white" mask="url(#path-5-outside-2_26_403)"/>
<path d="M54.679 13.9091H55.679V12.9091H54.679V13.9091ZM54.679 43V44H55.679V43H54.679ZM48.5284 43H47.5284V44H48.5284V43ZM48.5284 13.9091V12.9091H47.5284V13.9091H48.5284ZM53.679 13.9091V43H55.679V13.9091H53.679ZM54.679 42H48.5284V44H54.679V42ZM49.5284 43V13.9091H47.5284V43H49.5284ZM48.5284 14.9091H54.679V12.9091H48.5284V14.9091Z" fill="#19181A" mask="url(#path-5-outside-2_26_403)"/>
<mask id="path-7-outside-3_26_403" maskUnits="userSpaceOnUse" x="59" y="12" width="27" height="32" fill="black">
<rect fill="white" x="59" y="12" width="27" height="32"/>
<path d="M60.5284 43V13.9091H72.0057C74.2027 13.9091 76.0777 14.3021 77.6307 15.0881C79.1932 15.8646 80.3816 16.9678 81.196 18.3977C82.0199 19.8182 82.4318 21.4896 82.4318 23.4119C82.4318 25.3437 82.0152 27.0057 81.1818 28.3977C80.3485 29.7803 79.1411 30.8409 77.5597 31.5795C75.9877 32.3182 74.0843 32.6875 71.8494 32.6875H64.1648V27.7443H70.8551C72.0294 27.7443 73.0047 27.5833 73.7812 27.2614C74.5578 26.9394 75.1354 26.4564 75.5142 25.8125C75.9025 25.1686 76.0966 24.3684 76.0966 23.4119C76.0966 22.446 75.9025 21.6316 75.5142 20.9688C75.1354 20.3059 74.553 19.804 73.767 19.4631C72.9905 19.1127 72.0104 18.9375 70.8267 18.9375H66.679V43H60.5284ZM76.2386 29.7614L83.4688 43H76.679L69.6051 29.7614H76.2386Z"/>
</mask>
<path d="M60.5284 43V13.9091H72.0057C74.2027 13.9091 76.0777 14.3021 77.6307 15.0881C79.1932 15.8646 80.3816 16.9678 81.196 18.3977C82.0199 19.8182 82.4318 21.4896 82.4318 23.4119C82.4318 25.3437 82.0152 27.0057 81.1818 28.3977C80.3485 29.7803 79.1411 30.8409 77.5597 31.5795C75.9877 32.3182 74.0843 32.6875 71.8494 32.6875H64.1648V27.7443H70.8551C72.0294 27.7443 73.0047 27.5833 73.7812 27.2614C74.5578 26.9394 75.1354 26.4564 75.5142 25.8125C75.9025 25.1686 76.0966 24.3684 76.0966 23.4119C76.0966 22.446 75.9025 21.6316 75.5142 20.9688C75.1354 20.3059 74.553 19.804 73.767 19.4631C72.9905 19.1127 72.0104 18.9375 70.8267 18.9375H66.679V43H60.5284ZM76.2386 29.7614L83.4688 43H76.679L69.6051 29.7614H76.2386Z" fill="white"/>
<path d="M60.5284 43H59.5284V44H60.5284V43ZM60.5284 13.9091V12.9091H59.5284V13.9091H60.5284ZM77.6307 15.0881L77.1791 15.9803L77.1856 15.9836L77.6307 15.0881ZM81.196 18.3977L80.327 18.8926L80.331 18.8994L81.196 18.3977ZM81.1818 28.3977L82.0383 28.9139L82.0398 28.9114L81.1818 28.3977ZM77.5597 31.5795L77.1365 30.6735L77.1344 30.6745L77.5597 31.5795ZM64.1648 32.6875H63.1648V33.6875H64.1648V32.6875ZM64.1648 27.7443V26.7443H63.1648V27.7443H64.1648ZM73.7812 27.2614L74.1643 28.1851L73.7812 27.2614ZM75.5142 25.8125L74.6578 25.2961L74.6523 25.3055L75.5142 25.8125ZM75.5142 20.9688L74.6459 21.4649L74.6513 21.4742L75.5142 20.9688ZM73.767 19.4631L73.3558 20.3746L73.3624 20.3776L73.3691 20.3805L73.767 19.4631ZM66.679 18.9375V17.9375H65.679V18.9375H66.679ZM66.679 43V44H67.679V43H66.679ZM76.2386 29.7614L77.1163 29.282L76.8319 28.7614H76.2386V29.7614ZM83.4688 43V44H85.1543L84.3464 42.5207L83.4688 43ZM76.679 43L75.797 43.4713L76.0795 44H76.679V43ZM69.6051 29.7614V28.7614H67.937L68.7231 30.2326L69.6051 29.7614ZM61.5284 43V13.9091H59.5284V43H61.5284ZM60.5284 14.9091H72.0057V12.9091H60.5284V14.9091ZM72.0057 14.9091C74.0859 14.9091 75.7979 15.2813 77.1791 15.9803L78.0822 14.1958C76.3574 13.3229 74.3194 12.9091 72.0057 12.9091V14.9091ZM77.1856 15.9836C78.5815 16.6773 79.6171 17.646 80.3271 18.8926L82.065 17.9028C81.1462 16.2896 79.8049 15.0519 78.0757 14.1926L77.1856 15.9836ZM80.331 18.8994C81.0524 20.1432 81.4318 21.6354 81.4318 23.4119H83.4318C83.4318 21.3437 82.9874 19.4932 82.0611 17.896L80.331 18.8994ZM81.4318 23.4119C81.4318 25.1976 81.0479 26.6746 80.3238 27.8841L82.0398 28.9114C82.9824 27.3368 83.4318 25.4899 83.4318 23.4119H81.4318ZM80.3254 27.8815C79.6029 29.0801 78.5533 30.0118 77.1365 30.6735L77.9828 32.4856C79.7289 31.6701 81.094 30.4805 82.0383 28.9139L80.3254 27.8815ZM77.1344 30.6745C75.7279 31.3354 73.9779 31.6875 71.8494 31.6875V33.6875C74.1907 33.6875 76.2475 33.301 77.9849 32.4846L77.1344 30.6745ZM71.8494 31.6875H64.1648V33.6875H71.8494V31.6875ZM65.1648 32.6875V27.7443H63.1648V32.6875H65.1648ZM64.1648 28.7443H70.8551V26.7443H64.1648V28.7443ZM70.8551 28.7443C72.1123 28.7443 73.2284 28.5732 74.1643 28.1851L73.3982 26.3376C72.7811 26.5935 71.9464 26.7443 70.8551 26.7443V28.7443ZM74.1643 28.1851C75.1151 27.7909 75.8736 27.1739 76.3761 26.3195L74.6523 25.3055C74.3973 25.739 74.0004 26.0879 73.3982 26.3376L74.1643 28.1851ZM76.3706 26.3288C76.8752 25.492 77.0966 24.5015 77.0966 23.4119H75.0966C75.0966 24.2352 74.9298 24.8451 74.6578 25.2962L76.3706 26.3288ZM77.0966 23.4119C77.0966 22.3135 76.8755 21.3143 76.3771 20.4633L74.6513 21.4742C74.9294 21.949 75.0966 22.5785 75.0966 23.4119H77.0966ZM76.3824 20.4726C75.8835 19.5995 75.1237 18.9615 74.165 18.5456L73.3691 20.3805C73.9824 20.6465 74.3873 21.0122 74.646 21.4649L76.3824 20.4726ZM74.1783 18.5516C73.2325 18.1248 72.1005 17.9375 70.8267 17.9375V19.9375C71.9203 19.9375 72.7485 20.1006 73.3558 20.3746L74.1783 18.5516ZM70.8267 17.9375H66.679V19.9375H70.8267V17.9375ZM65.679 18.9375V43H67.679V18.9375H65.679ZM66.679 42H60.5284V44H66.679V42ZM75.361 30.2407L82.5911 43.4793L84.3464 42.5207L77.1163 29.282L75.361 30.2407ZM83.4688 42H76.679V44H83.4688V42ZM77.561 42.5287L70.4871 29.2901L68.7231 30.2326L75.797 43.4713L77.561 42.5287ZM69.6051 30.7614H76.2386V28.7614H69.6051V30.7614Z" fill="white" mask="url(#path-7-outside-3_26_403)"/>
<path d="M60.5284 43H59.5284V44H60.5284V43ZM60.5284 13.9091V12.9091H59.5284V13.9091H60.5284ZM77.6307 15.0881L77.1791 15.9803L77.1856 15.9836L77.6307 15.0881ZM81.196 18.3977L80.327 18.8926L80.331 18.8994L81.196 18.3977ZM81.1818 28.3977L82.0383 28.9139L82.0398 28.9114L81.1818 28.3977ZM77.5597 31.5795L77.1365 30.6735L77.1344 30.6745L77.5597 31.5795ZM64.1648 32.6875H63.1648V33.6875H64.1648V32.6875ZM64.1648 27.7443V26.7443H63.1648V27.7443H64.1648ZM73.7812 27.2614L74.1643 28.1851L73.7812 27.2614ZM75.5142 25.8125L74.6578 25.2961L74.6523 25.3055L75.5142 25.8125ZM75.5142 20.9688L74.6459 21.4649L74.6513 21.4742L75.5142 20.9688ZM73.767 19.4631L73.3558 20.3746L73.3624 20.3776L73.3691 20.3805L73.767 19.4631ZM66.679 18.9375V17.9375H65.679V18.9375H66.679ZM66.679 43V44H67.679V43H66.679ZM76.2386 29.7614L77.1163 29.282L76.8319 28.7614H76.2386V29.7614ZM83.4688 43V44H85.1543L84.3464 42.5207L83.4688 43ZM76.679 43L75.797 43.4713L76.0795 44H76.679V43ZM69.6051 29.7614V28.7614H67.937L68.7231 30.2326L69.6051 29.7614ZM61.5284 43V13.9091H59.5284V43H61.5284ZM60.5284 14.9091H72.0057V12.9091H60.5284V14.9091ZM72.0057 14.9091C74.0859 14.9091 75.7979 15.2813 77.1791 15.9803L78.0822 14.1958C76.3574 13.3229 74.3194 12.9091 72.0057 12.9091V14.9091ZM77.1856 15.9836C78.5815 16.6773 79.6171 17.646 80.3271 18.8926L82.065 17.9028C81.1462 16.2896 79.8049 15.0519 78.0757 14.1926L77.1856 15.9836ZM80.331 18.8994C81.0524 20.1432 81.4318 21.6354 81.4318 23.4119H83.4318C83.4318 21.3437 82.9874 19.4932 82.0611 17.896L80.331 18.8994ZM81.4318 23.4119C81.4318 25.1976 81.0479 26.6746 80.3238 27.8841L82.0398 28.9114C82.9824 27.3368 83.4318 25.4899 83.4318 23.4119H81.4318ZM80.3254 27.8815C79.6029 29.0801 78.5533 30.0118 77.1365 30.6735L77.9828 32.4856C79.7289 31.6701 81.094 30.4805 82.0383 28.9139L80.3254 27.8815ZM77.1344 30.6745C75.7279 31.3354 73.9779 31.6875 71.8494 31.6875V33.6875C74.1907 33.6875 76.2475 33.301 77.9849 32.4846L77.1344 30.6745ZM71.8494 31.6875H64.1648V33.6875H71.8494V31.6875ZM65.1648 32.6875V27.7443H63.1648V32.6875H65.1648ZM64.1648 28.7443H70.8551V26.7443H64.1648V28.7443ZM70.8551 28.7443C72.1123 28.7443 73.2284 28.5732 74.1643 28.1851L73.3982 26.3376C72.7811 26.5935 71.9464 26.7443 70.8551 26.7443V28.7443ZM74.1643 28.1851C75.1151 27.7909 75.8736 27.1739 76.3761 26.3195L74.6523 25.3055C74.3973 25.739 74.0004 26.0879 73.3982 26.3376L74.1643 28.1851ZM76.3706 26.3288C76.8752 25.492 77.0966 24.5015 77.0966 23.4119H75.0966C75.0966 24.2352 74.9298 24.8451 74.6578 25.2962L76.3706 26.3288ZM77.0966 23.4119C77.0966 22.3135 76.8755 21.3143 76.3771 20.4633L74.6513 21.4742C74.9294 21.949 75.0966 22.5785 75.0966 23.4119H77.0966ZM76.3824 20.4726C75.8835 19.5995 75.1237 18.9615 74.165 18.5456L73.3691 20.3805C73.9824 20.6465 74.3873 21.0122 74.646 21.4649L76.3824 20.4726ZM74.1783 18.5516C73.2325 18.1248 72.1005 17.9375 70.8267 17.9375V19.9375C71.9203 19.9375 72.7485 20.1006 73.3558 20.3746L74.1783 18.5516ZM70.8267 17.9375H66.679V19.9375H70.8267V17.9375ZM65.679 18.9375V43H67.679V18.9375H65.679ZM66.679 42H60.5284V44H66.679V42ZM75.361 30.2407L82.5911 43.4793L84.3464 42.5207L77.1163 29.282L75.361 30.2407ZM83.4688 42H76.679V44H83.4688V42ZM77.561 42.5287L70.4871 29.2901L68.7231 30.2326L75.797 43.4713L77.561 42.5287ZM69.6051 30.7614H76.2386V28.7614H69.6051V30.7614Z" fill="white" mask="url(#path-7-outside-3_26_403)"/>
<path d="M60.5284 43H59.5284V44H60.5284V43ZM60.5284 13.9091V12.9091H59.5284V13.9091H60.5284ZM77.6307 15.0881L77.1791 15.9803L77.1856 15.9836L77.6307 15.0881ZM81.196 18.3977L80.327 18.8926L80.331 18.8994L81.196 18.3977ZM81.1818 28.3977L82.0383 28.9139L82.0398 28.9114L81.1818 28.3977ZM77.5597 31.5795L77.1365 30.6735L77.1344 30.6745L77.5597 31.5795ZM64.1648 32.6875H63.1648V33.6875H64.1648V32.6875ZM64.1648 27.7443V26.7443H63.1648V27.7443H64.1648ZM73.7812 27.2614L74.1643 28.1851L73.7812 27.2614ZM75.5142 25.8125L74.6578 25.2961L74.6523 25.3055L75.5142 25.8125ZM75.5142 20.9688L74.6459 21.4649L74.6513 21.4742L75.5142 20.9688ZM73.767 19.4631L73.3558 20.3746L73.3624 20.3776L73.3691 20.3805L73.767 19.4631ZM66.679 18.9375V17.9375H65.679V18.9375H66.679ZM66.679 43V44H67.679V43H66.679ZM76.2386 29.7614L77.1163 29.282L76.8319 28.7614H76.2386V29.7614ZM83.4688 43V44H85.1543L84.3464 42.5207L83.4688 43ZM76.679 43L75.797 43.4713L76.0795 44H76.679V43ZM69.6051 29.7614V28.7614H67.937L68.7231 30.2326L69.6051 29.7614ZM61.5284 43V13.9091H59.5284V43H61.5284ZM60.5284 14.9091H72.0057V12.9091H60.5284V14.9091ZM72.0057 14.9091C74.0859 14.9091 75.7979 15.2813 77.1791 15.9803L78.0822 14.1958C76.3574 13.3229 74.3194 12.9091 72.0057 12.9091V14.9091ZM77.1856 15.9836C78.5815 16.6773 79.6171 17.646 80.3271 18.8926L82.065 17.9028C81.1462 16.2896 79.8049 15.0519 78.0757 14.1926L77.1856 15.9836ZM80.331 18.8994C81.0524 20.1432 81.4318 21.6354 81.4318 23.4119H83.4318C83.4318 21.3437 82.9874 19.4932 82.0611 17.896L80.331 18.8994ZM81.4318 23.4119C81.4318 25.1976 81.0479 26.6746 80.3238 27.8841L82.0398 28.9114C82.9824 27.3368 83.4318 25.4899 83.4318 23.4119H81.4318ZM80.3254 27.8815C79.6029 29.0801 78.5533 30.0118 77.1365 30.6735L77.9828 32.4856C79.7289 31.6701 81.094 30.4805 82.0383 28.9139L80.3254 27.8815ZM77.1344 30.6745C75.7279 31.3354 73.9779 31.6875 71.8494 31.6875V33.6875C74.1907 33.6875 76.2475 33.301 77.9849 32.4846L77.1344 30.6745ZM71.8494 31.6875H64.1648V33.6875H71.8494V31.6875ZM65.1648 32.6875V27.7443H63.1648V32.6875H65.1648ZM64.1648 28.7443H70.8551V26.7443H64.1648V28.7443ZM70.8551 28.7443C72.1123 28.7443 73.2284 28.5732 74.1643 28.1851L73.3982 26.3376C72.7811 26.5935 71.9464 26.7443 70.8551 26.7443V28.7443ZM74.1643 28.1851C75.1151 27.7909 75.8736 27.1739 76.3761 26.3195L74.6523 25.3055C74.3973 25.739 74.0004 26.0879 73.3982 26.3376L74.1643 28.1851ZM76.3706 26.3288C76.8752 25.492 77.0966 24.5015 77.0966 23.4119H75.0966C75.0966 24.2352 74.9298 24.8451 74.6578 25.2962L76.3706 26.3288ZM77.0966 23.4119C77.0966 22.3135 76.8755 21.3143 76.3771 20.4633L74.6513 21.4742C74.9294 21.949 75.0966 22.5785 75.0966 23.4119H77.0966ZM76.3824 20.4726C75.8835 19.5995 75.1237 18.9615 74.165 18.5456L73.3691 20.3805C73.9824 20.6465 74.3873 21.0122 74.646 21.4649L76.3824 20.4726ZM74.1783 18.5516C73.2325 18.1248 72.1005 17.9375 70.8267 17.9375V19.9375C71.9203 19.9375 72.7485 20.1006 73.3558 20.3746L74.1783 18.5516ZM70.8267 17.9375H66.679V19.9375H70.8267V17.9375ZM65.679 18.9375V43H67.679V18.9375H65.679ZM66.679 42H60.5284V44H66.679V42ZM75.361 30.2407L82.5911 43.4793L84.3464 42.5207L77.1163 29.282L75.361 30.2407ZM83.4688 42H76.679V44H83.4688V42ZM77.561 42.5287L70.4871 29.2901L68.7231 30.2326L75.797 43.4713L77.561 42.5287ZM69.6051 30.7614H76.2386V28.7614H69.6051V30.7614Z" fill="#19181A" mask="url(#path-7-outside-3_26_403)"/>
</svg>
